<svg id="Layer_1" data-name="Layer 1" xmlns="http://www.w3.org/2000/svg" viewBox="0 0 182.63 21.76"><title>marche-logo-final</title><path d="M21.85,22.42V13.73c0-3.12-1.14-4.35-3.27-4.35-1.43,0-3.09,1.28-4.55,2.6a7.76,7.76,0,0,1,.09,1.23v9.22H11.76V13.73c0-3.12-1.17-4.35-3.3-4.35-1.4,0-3.09,1.34-4.52,2.68V22.42H1.55V7.37H3.94v2A7.2,7.2,0,0,1,8.55,7.13a5.24,5.24,0,0,1,4.93,2.8c1.31-1.34,3.27-2.8,5.16-2.8,3,0,5.6,1.66,5.6,6.07v9.22Z" transform="translate(-1.55 -0.89)"/><path d="M55.29,22.54A2.65,2.65,0,0,1,53,21.49l-.32-.67a6.74,6.74,0,0,1-.52.47,6.44,6.44,0,0,1-4.11,1.31c-3.73,0-5.89-2-5.89-5s2.3-5,6.13-5a13.88,13.88,0,0,1,3.76.55.42.42,0,0,1,.2.06,0,0,0,0,1,.06,0v-.61a3.94,3.94,0,0,0-.76-2.57,4,4,0,0,0-3-1.05,8.37,8.37,0,0,0-5.34,1.84l-.44-2A9.46,9.46,0,0,1,48.67,7.1a6.46,6.46,0,0,1,4.43,1.37,5.31,5.31,0,0,1,1.63,4.32v5.66c0,1.17.17,1.84.7,2a2,2,0,0,0,1.22-.12l.15,1.87ZM52.38,18.8c0-.12,0-.93,0-1.08l0-2.68a16,16,0,0,0-4-.61c-2.8,0-3.82,1.4-3.82,3.12s.9,3.09,3.62,3.09a5.56,5.56,0,0,0,3-.82A5.91,5.91,0,0,0,52.38,18.8Z" transform="translate(-1.55 -0.89)"/><path d="M172.59,15.51a5,5,0,0,0,4.87,5,8.4,8.4,0,0,0,4.9-1.6l.73,2a9.66,9.66,0,0,1-5.57,1.78c-4.29,0-7.35-2.86-7.35-7.64,0-5.28,3.21-7.88,7.12-7.88,4.81,0,6.89,3.12,6.89,8.37Zm.06-2h9.1c-.17-2-1.4-4.32-4.46-4.32C174.9,9.18,173.12,10.9,172.65,13.49Zm5-7.88h-2.48L179.83.95h3.12Z" transform="translate(-1.55 -0.89)"/><path d="M84.19,10.25a2.39,2.39,0,0,0-1.63-.82c-1.6,0-3,1.4-4.46,3.06l0,0v9.95H75.7V7.37h2.42V9.61c1.25-1.28,2.8-2.48,4.55-2.48a3.11,3.11,0,0,1,1.81.41Z" transform="translate(-1.55 -0.89)"/><path d="M115.87,11.1a8.42,8.42,0,0,0-4.64-1.72c-2.66,0-4.93,2.16-4.93,5.6a5,5,0,0,0,4.93,5.34,7.12,7.12,0,0,0,4.35-1.66l.93,2a8.75,8.75,0,0,1-5.28,2A7.31,7.31,0,0,1,103.88,15c0-5.28,3.76-7.88,7.35-7.88a9.33,9.33,0,0,1,5.57,2Z" transform="translate(-1.55 -0.89)"/><path d="M146.39,22.42V13.73c0-2-.38-3.09-1.17-3.68A3.32,3.32,0,0,0,143,9.38c-1.6,0-3.27,1.4-4.78,2.8V22.42h-2.33V.89h2.33V9.5c1.28-1.14,3-2.36,4.93-2.36a5.85,5.85,0,0,1,3.27.82c1.4,1,2.33,2.57,2.33,5.25v9.22Z" transform="translate(-1.55 -0.89)"/></svg>